<?xml version="1.0" encoding="UTF-8" standalone="no"?>
<svg
   xmlns:dc="http://purl.org/dc/elements/1.1/"
   xmlns:cc="http://creativecommons.org/ns#"
   xmlns:rdf="http://www.w3.org/1999/02/22-rdf-syntax-ns#"
   xmlns:svg="http://www.w3.org/2000/svg"
   xmlns="http://www.w3.org/2000/svg"
   xmlns:xlink="http://www.w3.org/1999/xlink"
   xmlns:sodipodi="http://sodipodi.sourceforge.net/DTD/sodipodi-0.dtd"
   xmlns:inkscape="http://www.inkscape.org/namespaces/inkscape"
   version="1.0"
   width="740"
   height="790"
   id="svg2"
   sodipodi:docname="Northern-Norway.svg"
   inkscape:version="0.92.4 (5da689c313, 2019-01-14)">
  <sodipodi:namedview
     pagecolor="#ffffff"
     bordercolor="#666666"
     borderopacity="1"
     objecttolerance="10"
     gridtolerance="10"
     guidetolerance="10"
     inkscape:pageopacity="0"
     inkscape:pageshadow="2"
     inkscape:window-width="1920"
     inkscape:window-height="1027"
     id="namedview154"
     showgrid="false"
     inkscape:zoom="3.11"
     inkscape:cx="370"
     inkscape:cy="644.7161"
     inkscape:window-x="-8"
     inkscape:window-y="-8"
     inkscape:window-maximized="1"
     inkscape:current-layer="svg2" />
  <metadata
     id="metadata150">
    <rdf:RDF>
      <cc:Work
         rdf:about="">
        <dc:format>image/svg+xml</dc:format>
        <dc:type
           rdf:resource="http://purl.org/dc/dcmitype/StillImage" />
        <dc:title></dc:title>
      </cc:Work>
    </rdf:RDF>
  </metadata>
  <defs
     id="defs77">
    <linearGradient
       id="linearGradient4373">
      <stop
         offset="0"
         style="stop-color:#ff5454;stop-opacity:1"
         id="stop4375" />
      <stop
         offset="1"
         style="stop-color:#cc0000;stop-opacity:1"
         id="stop4377" />
    </linearGradient>
    <linearGradient
       id="linearGradient4261">
      <stop
         offset="0"
         style="stop-color:#cccccc;stop-opacity:1"
         id="stop4263" />
      <stop
         offset="1"
         style="stop-color:#8c8c8c;stop-opacity:1"
         id="stop4265" />
    </linearGradient>
    <linearGradient
       xlink:href="#linearGradient4261"
       id="linearGradient5057"
       x1="114.82114"
       y1="601.25824"
       x2="208.62292"
       y2="601.25824"
       gradientUnits="userSpaceOnUse" />
    <linearGradient
       xlink:href="#linearGradient4261"
       id="linearGradient5059"
       x1="95.374321"
       y1="660.71716"
       x2="188.46925"
       y2="660.71716"
       gradientUnits="userSpaceOnUse" />
    <linearGradient
       xlink:href="#linearGradient4261"
       id="linearGradient5061"
       x1="17.168722"
       y1="639.41278"
       x2="105.46132"
       y2="639.41278"
       gradientUnits="userSpaceOnUse" />
    <linearGradient
       xlink:href="#linearGradient4261"
       id="linearGradient5063"
       x1="12.373854"
       y1="717.03833"
       x2="79.519325"
       y2="717.03833"
       gradientUnits="userSpaceOnUse" />
    <linearGradient
       xlink:href="#linearGradient4261"
       id="linearGradient5065"
       x1="39.961872"
       y1="750.44696"
       x2="95.11702"
       y2="750.44696"
       gradientUnits="userSpaceOnUse" />
    <linearGradient
       xlink:href="#linearGradient4261"
       id="linearGradient5067"
       x1="63.283817"
       y1="733.60315"
       x2="134.98399"
       y2="733.60315"
       gradientUnits="userSpaceOnUse" />
    <linearGradient
       xlink:href="#linearGradient4373"
       id="linearGradient5069"
       x1="25.108612"
       y1="576.25458"
       x2="135.05551"
       y2="576.25458"
       gradientUnits="userSpaceOnUse" />
    <linearGradient
       xlink:href="#linearGradient4261"
       id="linearGradient5071"
       x1="53.312374"
       y1="500.01401"
       x2="187.75259"
       y2="500.01401"
       gradientUnits="userSpaceOnUse" />
    <linearGradient
       xlink:href="#linearGradient4261"
       id="linearGradient5073"
       x1="79.124313"
       y1="706.11285"
       x2="155.81123"
       y2="706.11285"
       gradientUnits="userSpaceOnUse" />
    <linearGradient
       xlink:href="#linearGradient4261"
       id="linearGradient5075"
       x1="152.93294"
       y1="722.2489"
       x2="178.98087"
       y2="722.2489"
       gradientUnits="userSpaceOnUse" />
    <linearGradient
       xlink:href="#linearGradient4261"
       id="linearGradient5077"
       x1="183.37779"
       y1="729.55872"
       x2="224.70299"
       y2="729.55872"
       gradientUnits="userSpaceOnUse" />
    <linearGradient
       xlink:href="#linearGradient4261"
       id="linearGradient5079"
       x1="178.7374"
       y1="683.15839"
       x2="224.50014"
       y2="683.15839"
       gradientUnits="userSpaceOnUse" />
    <linearGradient
       xlink:href="#linearGradient4261"
       id="linearGradient5081"
       x1="185.34731"
       y1="685.4809"
       x2="198.32478"
       y2="685.4809"
       gradientUnits="userSpaceOnUse" />
    <linearGradient
       xlink:href="#linearGradient4261"
       id="linearGradient5083"
       x1="181.9276"
       y1="607.87085"
       x2="267.00974"
       y2="607.87085"
       gradientUnits="userSpaceOnUse" />
    <linearGradient
       xlink:href="#linearGradient4261"
       id="linearGradient5085"
       x1="159.19247"
       y1="459.22113"
       x2="333.4527"
       y2="459.22113"
       gradientUnits="userSpaceOnUse" />
    <linearGradient
       xlink:href="#linearGradient4261"
       id="linearGradient5087"
       x1="273.42612"
       y1="253.52637"
       x2="445.89148"
       y2="253.52637"
       gradientUnits="userSpaceOnUse" />
    <linearGradient
       xlink:href="#linearGradient4261"
       id="linearGradient5089"
       x1="387.82263"
       y1="123.8193"
       x2="553.77734"
       y2="123.8193"
       gradientUnits="userSpaceOnUse" />
    <linearGradient
       xlink:href="#linearGradient4261"
       id="linearGradient5091"
       x1="521.47961"
       y1="86.629707"
       x2="735.41614"
       y2="86.629707"
       gradientUnits="userSpaceOnUse" />
    <linearGradient
       inkscape:collect="always"
       xlink:href="#linearGradient4261"
       id="linearGradient5289"
       x1="387.82263"
       y1="94.201157"
       x2="735.41614"
       y2="94.201157"
       gradientUnits="userSpaceOnUse" />
  </defs>
  <style
     type="text/css"
     id="style5" />
  <g
     id="tromsogfinnmark"
     style="fill:url(#linearGradient5289);fill-opacity:1">
    <title
       id="title5291">Troms og Finnmark</title>
    <g
       style="fill:url(#linearGradient5289);fill-opacity:1;stroke:none"
       id="g4622">
      <path
         inkscape:connector-curvature="0"
         style="fill:url(#linearGradient5289);fill-opacity:1;fill-rule:evenodd;stroke:none;stroke-width:1px;stroke-linecap:butt;stroke-linejoin:round;stroke-opacity:1"
         d="m 612.87714,8.4572286 -3.52019,-0.060693 -2.06356,2.0028664 3.27742,1.699402 -2.91326,4.855434 -1.09248,7.829387 -4.00573,-3.338111 -1.76009,0.849701 -1.69941,-4.36989 -2.5491,-0.06069 -3.94504,-1.517326 -2.00286,2.427717 1.88148,2.91326 -0.78901,4.491276 -4.79474,-2.245638 -1.88148,4.551969 2.67048,1.638709 2.6098,0.728315 4.49128,6.0086 -1.03178,2.002866 -6.19068,-3.398804 -4.97682,7.89008 2.06356,3.580883 -7.52592,0.789008 -8.6184,9.468096 0.8497,2.427717 -4.2485,4.673355 1.45663,6.008599 -3.03465,2.549103 0.97109,2.549103 2.73118,0.42485 1.76009,2.852568 -2.06355,2.670488 -4.3092,0.60693 -1.63871,-3.216725 -2.42772,-2.549103 v -3.884347 l -3.27742,-1.274552 0.54624,-3.762961 -3.09534,-0.06069 -3.4595,-3.156035 h -3.45949 l -0.78901,2.48841 0.30346,3.338111 -1.6387,1.213858 -1.09248,-1.699402 0.36416,-4.79474 -1.57802,-2.913261 -1.33524,1.638709 -3.70227,-2.852567 -2.30633,1.395937 -0.69796,5.887213 -1.13946,0.879726 -5.6885,-7.313175 -1.33525,3.459496 -3.27741,0.424851 -0.41885,1.19362 3.2041,-0.219647 7.23522,5.512474 4.51315,-3.152888 2.86394,1.587608 -2.07236,13.074284 10.08688,13.539944 v 0 l -3.0383,7.606103 9.50514,0.12179 -11.04809,8.92882 -0.25518,4.84335 -0.84411,12.54532 3.10768,6.52843 -6.94464,3.11903 4.37686,6.52513 -1.15316,2.42772 3.03464,2.67048 3.09534,11.28889 3.15603,-2.18495 2.91326,2.30633 h 8.07216 l 3.39881,4.36989 4.2485,-3.88434 6.19068,-1.7601 3.58088,-8.07216 3.82366,0.0607 6.8583,7.64731 8.43631,1.09247 5.88722,7.40453 4.49127,-2.91326 1.39594,-11.77442 4.36989,-5.70514 4.79474,0.48555 4.97682,-9.40741 -3.09534,-14.38422 3.27742,-19.84659 0.36416,-9.468092 5.1589,-5.462363 5.82652,-12.077892 10.86403,1.578016 6.91899,-2.184945 0.97109,-3.94504 5.21959,-5.583749 7.40454,-1.213858 4.3092,10.014332 4.73404,1.153166 2.12426,4.309197 15.96223,6.43345 5.76583,16.447778 -7.52592,12.0172 -1.88148,9.34671 4.79474,4.3092 3.15603,0.48554 3.64158,-3.27741 0.12138,-15.4767 11.83512,-8.73978 4.85544,-9.528789 -2.12426,-4.673355 2.30633,-1.517323 6.37276,5.40167 5.21959,1.45663 4.00574,-1.03178 1.09247,-4.855434 -4.36989,-10.135718 -5.76583,-1.395937 -2.12425,1.578016 -3.64158,-4.36989 -2.36702,1.153165 1.33524,3.277418 -1.94217,6.069292 -8.31493,0.242772 -1.21386,-2.791874 3.58088,-1.03178 3.03466,-3.884347 -2.85258,-4.066426 -2.36702,2.124252 -5.82652,-2.367024 1.03177,-3.216725 -4.12711,-2.427717 -4.67336,0.667623 -2.00286,-1.881481 -9.95364,-2.427717 -0.97109,-5.340977 23.48816,3.277418 4.67336,1.760094 8.98255,-5.705134 -0.12139,-3.762962 3.52019,-4.187811 6.37276,-2.427717 3.27742,-2.670489 -2.79188,-8.679088 -3.52018,1.45663 -5.58375,-6.554835 -10.43919,2.124252 2.97396,-7.161765 -5.1589,-5.280284 -4.67336,4.430583 -3.15603,-4.612662 -7.04038,4.309197 -0.36416,-4.794741 -2.00286,-3.520189 -5.94791,-3.641575 -3.52019,1.88148 -4.3092,6.312064 -2.12425,10.439183 1.57802,8.497009 -3.88435,1.942174 -3.09534,-1.760095 -3.52019,0.485543 -2.36702,-0.789008 6.49414,-9.286017 0.30347,-4.309197 -5.28029,3.702268 -1.27455,-1.578016 3.03465,-2.791875 -5.40167,-2.367024 1.50095,-2.405328 6.38913,-0.932782 4.91612,-10.014333 -1.15316,-3.2774176 -4.97682,0.4248505 -1.57802,-5.523056 -7.82939,2.8525674 -3.21672,-2.6097957 -2.6098,1.3352443 -0.36415,5.7051351 -4.3092,-1.9421739 -1.09247,3.5808829 -2.00287,5.037512 5.34098,0.606929 2.06356,3.09534 -2.6098,1.942173 -0.60693,4.248505 -2.73118,0.606929 -1.27455,5.523056 2.18494,2.549103 -3.33811,2.367024 1.15317,6.312063 -2.97395,0.06069 -6.97969,6.372757 0.18208,-14.748381 -1.33524,-4.309197 2.30632,-3.095339 -0.66762,-13.109672 -3.45949,1.03178 -6.43345,11.106805 -13.83799,28.04013 1.21386,3.702269 -5.70514,10.37849 -3.88434,3.459496 -3.09534,-5.340977 4.97682,-10.864033 -2.36703,-3.034647 3.52019,-2.852567 0.72832,-3.884347 -3.21673,-2.670489 13.89868,-21.363909 V 19.98888 l -7.52592,0.667622 0.30346,-3.459496 4.49128,-2.609796 3.09534,0.303468 4.18781,-2.91326 -3.21672,-2.4884097 1.33524,-3.7022683 -2.79187,-0.2427717 -4.55197,-2.6097957 -0.18208,5.523056"
         id="path4514"
         sodipodi:nodetypes="ccccccccccccccccccccccccccccccccccccccccccccccccccccccccccccccccccccccccccccccccccccccccccccccccccccccccccccccccccccccccccccccccccccccccccccccccccccccccccccccccccccccccccccccccccccccccccccccccccccccccccccccccccccccccccccccccc" />
      <path
         inkscape:connector-curvature="0"
         style="fill:url(#linearGradient5289);fill-opacity:1;fill-rule:evenodd;stroke:none;stroke-width:1px;stroke-linecap:butt;stroke-linejoin:round;stroke-opacity:1"
         d="m 592.18085,9.73178 1.94217,1.395937 1.45663,-1.031779 -0.011,-2.0236935 -2.41667,-0.2538167 z"
         id="path4516" />
      <path
         inkscape:connector-curvature="0"
         style="fill:url(#linearGradient5289);fill-opacity:1;fill-rule:evenodd;stroke:none;stroke-width:1px;stroke-linecap:butt;stroke-linejoin:round;stroke-opacity:1"
         d="m 579.7388,13.191277 2.12425,3.216725 -0.60692,2.245638 -3.27742,0.182078 v -4.79474 z"
         id="path4518" />
      <path
         inkscape:connector-curvature="0"
         style="fill:url(#linearGradient5289);fill-opacity:1;fill-rule:evenodd;stroke:none;stroke-width:1px;stroke-linecap:butt;stroke-linejoin:round;stroke-opacity:1"
         d="m 576.27931,44.872982 3.21672,-2.306331 1.21386,-5.128552 -2.48841,-2.518756 -4.27885,-2.488409 -1.57802,5.947905 0.57658,4.734049 z"
         id="path4520" />
      <path
         inkscape:connector-curvature="0"
         style="fill:url(#linearGradient5289);fill-opacity:1;fill-rule:evenodd;stroke:none;stroke-width:1px;stroke-linecap:butt;stroke-linejoin:round;stroke-opacity:1"
         d="m 568.81408,40.86725 2.79187,8.254237 -8.31493,10.985419 -2.91326,-0.364157 -0.24277,-2.609796 -4.43059,-1.820788 0.78901,-4.734048 3.09534,-4.066426 5.64444,-1.45663 z"
         id="path4522" />
      <path
         inkscape:connector-curvature="0"
         style="fill:url(#linearGradient5289);fill-opacity:1;fill-rule:evenodd;stroke:none;stroke-width:1px;stroke-linecap:butt;stroke-linejoin:round;stroke-opacity:1"
         d="m 562.92686,26.058176 2.73118,0.424851 0.66763,2.002866 -2.48841,5.40167 -3.94504,3.398804 -0.42485,3.034646 -4.43059,3.823654 -3.88434,-0.242771 -5.82653,3.762961 -4.36989,0.303465 1.15317,-5.098206 -5.03751,-3.095339 2.48841,-1.820788 2.36702,-0.182079 3.33811,-2.427716 2.42772,-0.121386 2.06356,2.852567 2.73118,-1.45663 0.66762,-3.823654 1.6994,-0.182079 1.54767,1.97252 2.28047,-0.506746 1.30041,-2.254782 0.24278,-4.218159 z"
         id="path4524" />
      <path
         inkscape:connector-curvature="0"
         style="fill:url(#linearGradient5289);fill-opacity:1;fill-rule:evenodd;stroke:none;stroke-width:1px;stroke-linecap:butt;stroke-linejoin:round;stroke-opacity:1"
         d="m 545.9025,59.56067 9.0129,3.914693 1.91182,-1.426284 -3.55053,-6.099638 -3.15603,-0.394504 z"
         id="path4526" />
      <path
         inkscape:connector-curvature="0"
         style="fill:url(#linearGradient5289);fill-opacity:1;fill-rule:evenodd;stroke:none;stroke-width:1px;stroke-linecap:butt;stroke-linejoin:round;stroke-opacity:1"
         d="m 529.3306,60.314291 1.07291,1.373324 1.60937,-2.875398 -1.39479,-2.875397 z"
         id="path4557" />
    </g>
    <g
       style="fill:url(#linearGradient5289);fill-opacity:1;stroke:none"
       id="g4632">
      <path
         inkscape:connector-curvature="0"
         style="fill:url(#linearGradient5289);fill-opacity:1;fill-rule:evenodd;stroke:none;stroke-width:1px;stroke-linecap:butt;stroke-linejoin:round;stroke-opacity:1"
         d="m 542.16989,146.95848 2.56778,-9.64416 2.5103,-4.84304 -1.23689,-14.23071 1.54135,-4.84335 4.25066,-4.43425 1.97428,-4.49457 -6.46684,-7.727893 -0.0196,-9.717449 -6.95403,-6.301828 -1.04089,-10.594951 -2.86394,-1.587608 -4.23246,0.09527 -7.51591,-2.454855 -3.2041,0.219647 3.60116,4.333749 0.18638,2.36271 4.43059,2.609796 6.4031,-1.790441 1.12282,1.274551 -2.57945,2.822221 3.0043,1.911827 -0.42485,3.277418 -1.88148,0.637276 2.76153,12.077891 -6.19068,-7.708001 -3.70227,-2.002866 -2.64014,-5.310631 -3.09534,-1.729748 -2.70084,0.637275 -0.88004,2.822221 1.63871,4.673355 -1.82079,3.854001 -1.6994,-1.729748 -1.72975,0.212425 -1.51733,2.549103 -1.15316,-3.580883 0.42485,-1.578016 -1.7601,-0.606929 -1.33524,2.002866 -0.48554,4.855434 -5.91756,2.670489 -0.0607,9.043242 4.67336,3.79331 0.30346,2.00287 -6.28171,-2.27599 -2.85257,4.91613 -2.45806,5.67479 -1.3656,-2.09391 5.00717,-11.89581 -1.82079,-5.310631 1.94218,-12.563436 -0.88005,-3.277417 -1.94217,-0.728315 -8.98256,16.690553 1.54767,6.008596 -3.30776,1.54767 -2.88292,8.01147 -1.91182,1.03178 3.36845,-15.17323 0.84971,-7.677657 -1.69941,-1.760094 -3.55053,0.212425 -8.01147,3.94504 -4.36989,7.768696 -0.18208,3.58088 5.21959,0.3945 0.12139,1.48698 -4.64301,3.854 2.36703,3.67192 5.43201,3.64158 0.63728,3.76296 1.94217,2.85257 -3.30776,2.45806 -2.57945,-0.72832 0.21242,-2.88291 2.24564,-2.03321 -5.82652,-4.06643 -4.88578,-11.04611 -5.28028,0.12139 -2.33668,2.51875 4.61266,9.25567 5.31063,2.45807 -8.77013,1.15316 -5.85686,-12.19928 -2.18495,1.51733 -1.18351,6.12998 -3.70227,5.18925 2.21529,6.34241 -9.89294,3.97538 -4.73405,7.3135 -0.21243,4.46093 6.19068,1.06213 1.60836,1.42628 -6.55483,1.3049 -1.21386,2.09391 3.94504,2.91325 -6.61553,-0.63727 -2.70083,2.70084 4.49127,2.85256 -1.79044,1.54768 -6.67622,-2.09391 -1.79044,3.09534 -4.09677,-2.45807 -6.79761,4.46093 -0.0607,4.15747 -1.9916,1.30716 2.25316,1.22857 4.92084,-4.12323 6.28133,2.01946 10.22099,-2.56969 10.17669,1.42367 3.30577,3.96322 6.55921,-1.1856 4.36989,4.09677 11.6227,1.12282 18.90584,8.73978 6.4638,-7.73835 -5.06786,-4.61266 8.89151,-16.66021 -1.7644,-8.9479 -3.12138,-5.19355 11.59235,-2.00287 1.85113,-2.82222 7.34385,4.06643 1.97252,-1.66906 -1.6994,-8.67908 6.88864,-7.7687 8.07216,2.79188 z"
         id="path4559"
         sodipodi:nodetypes="cccccccccccccccccccccccccccccccccccccccccccccccccccccccccccccccccccccccccccccccccccccccccccccccccccccccccccccccccccccccccccccccccc" />
      <path
         inkscape:connector-curvature="0"
         style="fill:url(#linearGradient5289);fill-opacity:1;fill-rule:evenodd;stroke:none;stroke-width:1px;stroke-linecap:butt;stroke-linejoin:round;stroke-opacity:1"
         d="m 505.77317,91.627359 1.69078,0.02945 0.34943,-5.336663 -1.34566,0.03987 z"
         id="path4586" />
      <path
         inkscape:connector-curvature="0"
         style="fill:url(#linearGradient5289);fill-opacity:1;fill-rule:evenodd;stroke:none;stroke-width:1px;stroke-linecap:butt;stroke-linejoin:round;stroke-opacity:1"
         d="m 512.0055,83.534375 2.19765,-1.292072 0.89768,-2.288811 -4.55196,-2.184945 -1.27455,3.338111 z"
         id="path4588" />
      <path
         inkscape:connector-curvature="0"
         style="fill:url(#linearGradient5289);fill-opacity:1;fill-rule:evenodd;stroke:none;stroke-width:1px;stroke-linecap:butt;stroke-linejoin:round;stroke-opacity:1"
         d="m 505.20789,74.248357 1.15317,2.245638 2.24564,-0.971086 1.33524,-8.314931 -2.06356,-2.184945 -3.76296,1.942174 -3.3988,5.583748 1.6387,2.549103 z"
         id="path4590" />
      <path
         inkscape:connector-curvature="0"
         style="fill:url(#linearGradient5289);fill-opacity:1;fill-rule:evenodd;stroke:none;stroke-width:1px;stroke-linecap:butt;stroke-linejoin:round;stroke-opacity:1"
         d="m 491.49129,75.34083 2.67049,-2.48841 -3.4595,-5.947906 -1.94217,-0.182079 -2.12425,-4.127119 -2.06356,-0.42485 -0.48554,2.306331 2.5491,3.762961 0.36416,6.008599 z"
         id="path4592" />
      <path
         inkscape:connector-curvature="0"
         style="fill:url(#linearGradient5289);fill-opacity:1;fill-rule:evenodd;stroke:none;stroke-width:1px;stroke-linecap:butt;stroke-linejoin:round;stroke-opacity:1"
         d="m 483.47983,71.638562 -1.21386,-2.670489 h -2.00287 l -0.24277,2.124252 2.85257,1.517323 z"
         id="path4594" />
      <path
         inkscape:connector-curvature="0"
         style="fill:url(#linearGradient5289);fill-opacity:1;fill-rule:evenodd;stroke:none;stroke-width:1px;stroke-linecap:butt;stroke-linejoin:round;stroke-opacity:1"
         d="m 476.31806,65.933427 -1.51732,-1.03178 -1.45663,3.94504 1.72975,0.849701 z"
         id="path4596" />
      <path
         inkscape:connector-curvature="0"
         style="fill:url(#linearGradient5289);fill-opacity:1;fill-rule:evenodd;stroke:none;stroke-width:1px;stroke-linecap:butt;stroke-linejoin:round;stroke-opacity:1"
         d="m 466.24304,72.245491 1.88148,1.335244 -0.42485,1.820788 -3.21673,2.245638 -0.54624,-1.395937 z"
         id="path4598" />
      <path
         inkscape:connector-curvature="0"
         style="fill:url(#linearGradient5289);fill-opacity:1;fill-rule:evenodd;stroke:none;stroke-width:1px;stroke-linecap:butt;stroke-linejoin:miter;stroke-opacity:1"
         d="m 488.33526,79.832106 1.45663,1.638709 -3.21673,6.615529 -4.30919,0.606929 0.42485,-2.48841 z"
         id="path4600" />
      <path
         inkscape:connector-curvature="0"
         style="fill:url(#linearGradient5289);fill-opacity:1;fill-rule:evenodd;stroke:none;stroke-width:1px;stroke-linecap:butt;stroke-linejoin:round;stroke-opacity:1"
         d="m 479.35271,78.375476 2.12425,-2.063559 2.85257,1.517323 -0.18208,2.306331 -4.06643,5.340977 -2.18494,3.884347 -4.3092,1.578016 -7.95077,-6.190678 -0.24278,-1.760095 3.27742,-1.578016 -0.72831,-2.731181 2.30633,-2.184946 1.94217,0.789008 2.79188,-3.762961 z"
         id="path4602" />
      <path
         inkscape:connector-curvature="0"
         style="fill:url(#linearGradient5289);fill-opacity:1;fill-rule:evenodd;stroke:none;stroke-width:1px;stroke-linecap:butt;stroke-linejoin:round;stroke-opacity:1"
         d="m 465.27195,87.964958 3.70227,3.034646 1.51732,3.216725 -3.03465,2.731182 -2.48841,0.242771 -0.8497,-3.823654 z"
         id="path4606" />
      <path
         inkscape:connector-curvature="0"
         style="fill:url(#linearGradient5289);fill-opacity:1;fill-rule:evenodd;stroke:none;stroke-width:1px;stroke-linecap:butt;stroke-linejoin:round;stroke-opacity:1"
         d="m 460.05236,91.363762 1.82079,1.335244 -0.12139,4.248505 3.52019,7.586619 -2.42772,1.94217 -11.77443,1.39594 -2.18494,-3.33811 1.39594,-2.24564 2.18494,0.66762 0.12139,-4.673355 4.12712,-0.910394 -1.7601,-3.762961 z"
         id="path4608" />
      <path
         inkscape:connector-curvature="0"
         style="fill:url(#linearGradient5289);fill-opacity:1;fill-rule:evenodd;stroke:none;stroke-width:1px;stroke-linecap:butt;stroke-linejoin:round;stroke-opacity:1"
         d="m 439.35607,106.17283 2.97395,-0.42485 1.15317,4.85544 3.70227,-1.21386 -1.21386,4.18781 2.18494,1.33525 -1.15316,4.79474 -4.00573,2.06356 0.36415,5.76582 1.33525,1.39594 -4.24851,2.18495 -6.25136,0.91039 -0.9104,-2.30633 -3.18037,4.22194 -3.1317,1.4225 -2.06355,2.73119 -2.12102,-1.84423 -4.6159,0.50898 6.0086,-5.46236 -1.61309,-1.5081 -0.0256,-1.52655 3.52019,-1.21386 -2.79188,-3.52019 1.76009,-2.42772 -3.15604,-3.27742 4.79475,-2.42771 5.03751,1.82079 0.78901,-1.7601 -3.09534,-4.97682 3.15603,-2.12425 3.76296,3.15603 3.70227,-2.30633 z"
         id="path4610" />
      <path
         inkscape:connector-curvature="0"
         style="fill:url(#linearGradient5289);fill-opacity:1;fill-rule:evenodd;stroke:none;stroke-width:1px;stroke-linecap:butt;stroke-linejoin:round;stroke-opacity:1"
         d="m 417.02107,156.73004 1.21386,1.51732 5.46237,-3.70227 -2.42772,-4.79474 z"
         id="path4612" />
      <path
         inkscape:connector-curvature="0"
         style="fill:url(#linearGradient5289);fill-opacity:1;fill-rule:evenodd;stroke:none;stroke-width:1px;stroke-linecap:butt;stroke-linejoin:round;stroke-opacity:1"
         d="m 426.54986,153.6347 3.39881,-1.63871 0.36416,-2.12425 -2.30634,-3.15603 -1.45663,1.15316 -1.15316,3.76296 z"
         id="path4614" />
      <path
         inkscape:connector-curvature="0"
         style="fill:url(#linearGradient5289);fill-opacity:1;fill-rule:evenodd;stroke:none;stroke-width:1px;stroke-linecap:butt;stroke-linejoin:round;stroke-opacity:1"
         d="m 409.92,147.44402 2.48841,-1.03178 -0.30346,-2.97395 -4.97682,-2.97395 -0.9104,3.52019 z"
         id="path4616" />
      <path
         inkscape:connector-curvature="0"
         style="fill:url(#linearGradient5289);fill-opacity:1;fill-rule:evenodd;stroke:none;stroke-width:1px;stroke-linecap:butt;stroke-linejoin:round;stroke-opacity:1"
         d="m 433.22609,135.6696 -2.48841,1.51732 -0.9104,3.64157 1.33525,0.9104 2.60979,-2.67049 z"
         id="path4618" />
      <path
         inkscape:connector-curvature="0"
         style="fill:url(#linearGradient5289);fill-opacity:1;fill-rule:evenodd;stroke:none;stroke-width:1px;stroke-linecap:butt;stroke-linejoin:round;stroke-opacity:1"
         d="m 393.33867,143.14678 2.19713,0.85524 -1.21388,9.99684 2.30633,1.27455 -2.67049,7.28315 3.21673,-0.12139 4.73405,-7.16176 -1.6994,-2.06356 4.12711,-6.12998 6.12999,7.34384 -1.63871,12.0172 -2.00143,0.91545 -1.87065,-2.27216 -9.49859,-0.52197 -6.00345,8.22703 -1.63077,-1.66926 4.21186,-14.4143 z"
         id="path4620" />
    </g>
  </g>
  <g
     id="nordland"
     style="fill:url(#linearGradient5087);fill-opacity:1;stroke:none">
    <title
       id="title5293">Nordland</title>
    <path
       id="path4652"
       d="m 405.66009,167.66595 -1.19983,-1.58507 -8.49704,-0.43376 -6.3624,8.76122 -2.89537,-2.99925 4.28549,-14.92241 1.30348,-13.31047 -2.97963,3.0791 -0.68088,2.29832 0.89327,1.43952 -3.82365,2.42771 2.36702,3.70227 -3.15603,2.73118 1.6994,2.42772 -1.33524,2.30633 -5.2196,2.79187 -0.0607,5.94791 -3.52018,2.24564 -2.91326,7.52592 1.21386,0.48555 7.28315,-8.6184 1.6994,0.0607 -3.88434,6.55483 4.06642,-0.0607 2.30633,1.88149 6.79761,-8.31493 0.97109,4.30919 4.91612,-8.5577 z"
       style="fill:url(#linearGradient5087);fill-opacity:1;fill-rule:evenodd;stroke:none;stroke-width:1px;stroke-linecap:butt;stroke-linejoin:round;stroke-opacity:1"
       inkscape:connector-curvature="0" />
    <path
       id="path4654"
       d="m 403.66863,171.23565 1.7601,0.48554 -0.18208,4.91613 -5.21959,1.76009 -0.66763,-2.30633 z"
       style="fill:url(#linearGradient5087);fill-opacity:1;fill-rule:evenodd;stroke:none;stroke-width:1px;stroke-linecap:butt;stroke-linejoin:miter;stroke-opacity:1"
       inkscape:connector-curvature="0" />
    <path
       id="path4656"
       d="m 403.54725,121.52814 -3.21673,10.98542 -6.49414,6.61553 -4.00574,0.36416 -2.24563,4.73405 -1.6994,-1.09247 2.12425,-8.67909 6.79761,-6.0693 1.51732,-4.06642 z"
       style="fill:url(#linearGradient5087);fill-opacity:1;fill-rule:evenodd;stroke:none;stroke-width:1px;stroke-linecap:butt;stroke-linejoin:round;stroke-opacity:1"
       inkscape:connector-curvature="0" />
    <path
       id="path4658"
       d="m 378.60246,155.51618 -8.01148,5.34097 -0.619,2.41733 2.01494,0.92079 11.2282,-6.43345 -1.27455,-6.06929 1.82078,-2.36703 -2.79187,-5.34097 -0.30347,-5.82652 -1.45663,-1.57802 -2.30633,2.91326 0.78901,9.22532 -4.2485,-0.72831 -3.52019,3.58088 -3.39881,-2.00287 -5.34097,6.37276 0.42485,4.12712 2.18494,-0.24277 3.64158,-3.3988 3.3988,0.8497 5.64444,-4.3092 z"
       style="fill:url(#linearGradient5087);fill-opacity:1;fill-rule:evenodd;stroke:none;stroke-width:1px;stroke-linecap:butt;stroke-linejoin:round;stroke-opacity:1"
       inkscape:connector-curvature="0" />
    <path
       id="path4660"
       d="m 297.69879,342.02553 -2.12425,-6.67622 3.03464,-3.15603 -1.94217,-2.67049 4.91613,-5.88721 8.37562,5.88721 -0.0607,-4.00573 -3.94503,-3.52019 0.66762,-3.94504 -5.58375,-0.8497 0.18208,-1.94217 20.02866,-5.70514 1.51733,1.15317 -0.42486,4.49127 4.18782,-0.72831 1.03178,-4.24851 3.3988,-0.18208 5.34098,-4.30919 2.36702,-0.8497 -3.21672,-0.30347 -9.40741,3.64158 -1.63871,-2.24564 -11.77442,4.06642 -1.09248,-1.33524 7.70801,-5.21959 v -2.00287 l -2.48841,-0.60693 -2.85257,2.18495 -2.67049,-3.76296 3.09534,-4.24851 -1.57802,-5.40167 1.15317,-1.33524 1.82079,0.36415 2.12425,3.15604 3.09534,-2.79188 -3.52019,-2.36702 3.33811,-3.94504 -0.91039,-3.58088 1.94217,-1.69941 4.49127,2.91326 h 6.55484 l -1.94217,-2.67048 -4.00574,0.42485 -1.03178,-2.79188 2.73119,-1.63871 6.55483,0.97109 -1.45663,-3.33811 -5.21959,-3.76296 0.36416,-1.82079 5.1589,-2.24564 4.18781,0.54624 2.67049,-4.79474 3.21672,3.3988 7.34385,-3.33811 -3.15604,-2.6098 3.15604,-4.55196 9.89294,-1.69941 2.85257,3.33811 1.94217,-2.36702 6.19068,1.51732 2.91326,4.06643 0.91039,-3.58088 2.79188,-1.27455 -8.37562,-3.4595 -2.73119,-3.52019 -4.49127,1.21385 -3.39881,-0.0607 -2.48841,-1.27455 -5.34097,1.45663 5.75406,-8.5577 2.2091,-1.71178 6.19331,2.71554 1.04679,-2.31221 -5.06754,-3.24351 0.8497,-2.60979 6.19067,-2.30633 2.18495,3.45949 -1.6994,3.15603 6.37275,-0.30346 3.27742,3.33811 1.63871,-4.73405 -2.42772,-1.6994 -2.48841,-0.0607 -1.51732,-2.00286 2.67049,-3.27742 -3.52019,-0.8497 3.03465,-6.06929 3.21672,-1.45663 3.76296,1.03178 1.39594,-1.7601 -6.19068,-3.94504 -12.07789,9.58949 -2.48841,-0.18208 -0.8497,-3.15603 2.48841,-2.54911 3.15603,0.36416 -0.48554,-3.88435 h -3.94504 l 1.76051,-3.3377 4.18781,-2.48882 -2.12475,-1.95978 0.60946,-1.71164 3.14063,0.216 1.68258,1.71809 -1.57268,1.95484 2.57354,3.05991 4.00574,-2.97395 2.42771,1.15316 5.09821,-3.09534 3.52019,0.42485 2.64014,-3.91468 -1.91183,-2.64015 -0.18208,-2.24564 5.28029,-9.58948 1.15316,6.49414 -1.27455,7.22246 4.3092,1.27455 2.91326,4.67335 2.30633,-1.94217 -2.06356,-4.58231 4.40024,-2.94361 -5.88721,-0.60693 4.09677,-3.06499 0.30346,-3.42915 -5.37132,-0.15174 1.48697,-2.76152 -2.82222,-2.1546 0.66763,-2.73118 6.31206,3.45949 1.12282,-1.54767 -4.46093,-5.03751 3.09534,-0.97109 7.37419,0.39451 2.70083,3.0043 3.36846,-0.88005 2.36702,1.88148 3.61123,-2.48841 4.03608,0.69797 5.79618,-4.55197 -4.49128,-5.12855 -7.07072,4.18781 -3.27742,-0.42485 -0.48555,-3.58088 -4.67335,3.58088 -6.12999,-0.72832 -0.27712,-3.53295 2.93943,1.4761 5.02816,-4.17273 5.95533,1.95221 10.33258,-2.56901 9.61703,1.28824 2.98301,3.66894 -1.95555,2.07273 1.57898,19.95611 -8.02537,14.33407 -12.70325,-10.29993 -13.30407,10.77201 -4.67789,13.69033 -6.60912,11.37284 -3.56206,-0.38625 -3.60497,6.52329 5.53621,8.92661 -1.15874,15.40698 -10.85785,10.38576 -7.46745,11.802 -9.05535,9.82785 -0.38625,14.29116 -7.63912,5.10705 -13.30407,0.12875 -2.66082,2.1029 1.07291,19.82736 -4.4633,12.91783 -1.45916,14.97782 -4.16289,4.24872 -0.0858,3.90539 -3.35177,4.64381 -30.74858,-2.74622 -7.33896,7.27939 -3.96657,1.1344 -12.55855,-2.8139 -1.15692,-1.56513 3.07169,-3.97882 9.04324,-1.88148 3.09535,-4.00574 -3.58089,-10e-6 -2.24564,0.9104 -0.88247,-1.16651 1.4894,-3.08199 -1.76009,-2.5491 3.45867,-5.18376 0.32749,-4.81836 3.242,0.77597 1.10386,-1.99105 -1.03095,-3.47049 0.30346,-3.3988 -4.67335,1.51732 0.42485,-8.37562 3.15603,-2.67049 3.3988,5.09821 1.94218,-0.84971"
       style="fill:url(#linearGradient5087);fill-opacity:1;fill-rule:evenodd;stroke:none;stroke-width:1px;stroke-linecap:butt;stroke-linejoin:round;stroke-opacity:1"
       inkscape:connector-curvature="0" />
    <path
       id="path4666"
       d="m 279.84253,376.14222 -3.42694,-1.0208 1.96866,-5.68726 1.89576,-1.38536 1.0937,1.6041 z"
       style="fill:url(#linearGradient5087);fill-opacity:1;fill-rule:evenodd;stroke:none;stroke-width:1px;stroke-linecap:butt;stroke-linejoin:miter;stroke-opacity:1"
       inkscape:connector-curvature="0" />
    <path
       id="path4668"
       d="m 279.40504,366.00722 2.98946,-4.52065 h 1.67702 l 3.42694,-2.91654 -0.0729,-9.84334 -2.77073,-1.82284 -1.16662,4.01025 1.74992,1.74993 -3.49985,3.57276 0.21874,2.69781 -3.71859,2.91654 z"
       style="fill:url(#linearGradient5087);fill-opacity:1;fill-rule:evenodd;stroke:none;stroke-width:1px;stroke-linecap:butt;stroke-linejoin:miter;stroke-opacity:1"
       inkscape:connector-curvature="0" />
    <path
       id="path4670"
       d="m 279.04048,356.96593 0.65622,-4.08316 -3.06237,3.2082 2.55197,1.16661"
       style="fill:url(#linearGradient5087);fill-opacity:1;fill-rule:evenodd;stroke:none;stroke-width:1px;stroke-linecap:butt;stroke-linejoin:miter;stroke-opacity:1"
       inkscape:connector-curvature="0" />
    <path
       id="path4672"
       d="m 276.41559,342.60194 1.67701,-0.51039 0.43748,-4.01025 -2.40615,-0.87497 -2.6978,1.82285 0.0729,2.6978 z"
       style="fill:url(#linearGradient5087);fill-opacity:1;fill-rule:evenodd;stroke:none;stroke-width:1px;stroke-linecap:butt;stroke-linejoin:miter;stroke-opacity:1"
       inkscape:connector-curvature="0" />
    <path
       id="path4674"
       d="m 296.02935,320.65494 -1.6041,0.58331 -3.2082,5.10395 2.40615,1.45828 4.22899,-4.30191 z"
       style="fill:url(#linearGradient5087);fill-opacity:1;fill-rule:evenodd;stroke:none;stroke-width:1px;stroke-linecap:butt;stroke-linejoin:miter;stroke-opacity:1"
       inkscape:connector-curvature="0" />
    <path
       id="path4676"
       d="m 299.52921,322.76944 2.47906,-2.04159 v 1.67702 z"
       style="fill:url(#linearGradient5087);fill-opacity:1;fill-rule:evenodd;stroke:none;stroke-width:1px;stroke-linecap:butt;stroke-linejoin:miter;stroke-opacity:1"
       inkscape:connector-curvature="0" />
    <path
       id="path4678"
       d="m 291.80036,317.73839 5.39561,-1.82284 0.21874,-3.35402 -1.67701,-0.72914 -5.03104,4.52065 z"
       style="fill:url(#linearGradient5087);fill-opacity:1;fill-rule:evenodd;stroke:none;stroke-width:1px;stroke-linecap:butt;stroke-linejoin:miter;stroke-opacity:1"
       inkscape:connector-curvature="0" />
    <path
       id="path4680"
       d="m 296.32101,309.57207 1.74992,0.65622 0.80205,-1.82284 -2.11449,-0.94788 z"
       style="fill:url(#linearGradient5087);fill-opacity:1;fill-rule:evenodd;stroke:none;stroke-width:1px;stroke-linecap:butt;stroke-linejoin:miter;stroke-opacity:1"
       inkscape:connector-curvature="0" />
    <path
       id="path4682"
       d="m 303.90403,305.9993 1.31244,-0.58331 0.14583,-2.26032 -3.06237,1.16662 z"
       style="fill:url(#linearGradient5087);fill-opacity:1;fill-rule:evenodd;stroke:none;stroke-width:1px;stroke-linecap:butt;stroke-linejoin:miter;stroke-opacity:1"
       inkscape:connector-curvature="0" />
    <path
       id="path4684"
       d="m 307.91428,305.85347 1.96866,-1.38536 1.6041,0.43749 -2.6978,2.33323 z"
       style="fill:url(#linearGradient5087);fill-opacity:1;fill-rule:evenodd;stroke:none;stroke-width:1px;stroke-linecap:butt;stroke-linejoin:miter;stroke-opacity:1"
       inkscape:connector-curvature="0" />
    <path
       id="path4686"
       d="m 310.10168,294.33312 0.87497,0.87496 -0.58331,1.67702 -1.45827,-0.72914 z"
       style="fill:url(#linearGradient5087);fill-opacity:1;fill-rule:evenodd;stroke:none;stroke-width:1px;stroke-linecap:butt;stroke-linejoin:miter;stroke-opacity:1"
       inkscape:connector-curvature="0" />
    <path
       id="path4688"
       d="m 321.18456,276.39636 h 2.18741 l 0.36456,-2.11449 -2.47906,0.36457 0.21874,1.82284"
       style="fill:url(#linearGradient5087);fill-opacity:1;fill-rule:evenodd;stroke:none;stroke-width:1px;stroke-linecap:butt;stroke-linejoin:miter;stroke-opacity:1"
       inkscape:connector-curvature="0" />
    <path
       id="path4690"
       d="m 325.99686,269.6154 -0.36457,1.45827 0.65622,0.72914 z"
       style="fill:url(#linearGradient5087);fill-opacity:1;fill-rule:evenodd;stroke:none;stroke-width:1px;stroke-linecap:butt;stroke-linejoin:miter;stroke-opacity:1"
       inkscape:connector-curvature="0" />
    <path
       id="path4692"
       d="m 334.45484,257.58465 -0.36457,2.55197 1.82284,-1.02079 z"
       style="fill:url(#linearGradient5087);fill-opacity:1;fill-rule:evenodd;stroke:none;stroke-width:1px;stroke-linecap:butt;stroke-linejoin:miter;stroke-opacity:1"
       inkscape:connector-curvature="0" />
    <path
       id="path4694"
       d="m 340.79832,254.52227 3.57277,-0.87496 2.62489,-2.84363 -0.29165,4.59356 -1.74993,3.57277 -4.73939,-2.33324 z"
       style="fill:url(#linearGradient5087);fill-opacity:1;fill-rule:evenodd;stroke:none;stroke-width:1px;stroke-linecap:butt;stroke-linejoin:miter;stroke-opacity:1"
       inkscape:connector-curvature="0" />
    <path
       id="path4696"
       d="m 378.1301,200.49327 0.21875,-3.57277 2.47906,-2.33323 3.42694,-0.0729 1.82284,-1.67703 1.89575,0.58331 -1.23953,4.01025 1.53119,1.16662 -2.26032,2.98946 -3.57277,-3.42694 z"
       style="fill:url(#linearGradient5087);fill-opacity:1;fill-rule:evenodd;stroke:none;stroke-width:1px;stroke-linecap:butt;stroke-linejoin:miter;stroke-opacity:1"
       inkscape:connector-curvature="0" />
    <path
       id="path4698"
       d="m 354.579,188.09795 6.34349,-1.89575 4.01025,-5.83309 2.18741,2.47906 2.62489,-2.98946 3.49985,-2.77071 0.65622,-4.30191 -5.32269,4.30191 -2.26032,-3.49986 -6.70806,3.64568 -0.29165,2.98946 -4.59356,1.82284 z"
       style="fill:url(#linearGradient5087);fill-opacity:1;fill-rule:evenodd;stroke:none;stroke-width:1px;stroke-linecap:butt;stroke-linejoin:miter;stroke-opacity:1"
       inkscape:connector-curvature="0" />
    <path
       id="path4700"
       d="m 348.81882,185.54598 -5.97891,2.84363 -1.16662,3.49985 -2.98946,0.72914 -2.62489,-2.47906 0.65622,-3.57277 2.33324,-1.53119 -0.58331,-3.71859 3.28111,-0.80205 2.91655,0.87496 0.80205,2.26032 3.42694,-0.21874 -0.0729,1.89576"
       style="fill:url(#linearGradient5087);fill-opacity:1;fill-rule:evenodd;stroke:none;stroke-width:1px;stroke-linecap:butt;stroke-linejoin:miter;stroke-opacity:1"
       inkscape:connector-curvature="0" />
    <path
       id="path4702"
       d="m 351.00623,180.80659 2.40615,-0.36457 -1.67701,-2.55197 -1.89576,1.0937 z"
       style="fill:url(#linearGradient5087);fill-opacity:1;fill-rule:evenodd;stroke:none;stroke-width:1px;stroke-linecap:butt;stroke-linejoin:miter;stroke-opacity:1"
       inkscape:connector-curvature="0" />
    <path
       id="path4704"
       d="m 347.28764,180.2962 v -2.04159 l -1.02079,-0.43748 -0.14583,1.82284 z"
       style="fill:url(#linearGradient5087);fill-opacity:1;fill-rule:evenodd;stroke:none;stroke-width:1px;stroke-linecap:butt;stroke-linejoin:miter;stroke-opacity:1"
       inkscape:connector-curvature="0" />
    <path
       id="path4706"
       d="m 331.90286,187.07716 1.45827,1.09371 -0.58331,4.8123 -2.77071,2.04158 -2.40615,-2.1145 3.06237,-2.26032 z"
       style="fill:url(#linearGradient5087);fill-opacity:1;fill-rule:evenodd;stroke:none;stroke-width:1px;stroke-linecap:butt;stroke-linejoin:miter;stroke-opacity:1"
       inkscape:connector-curvature="0" />
    <path
       id="path4708"
       d="m 325.19481,191.37907 0.58331,2.77072 -1.09371,2.11449 1.31245,3.2082 -4.73939,1.31245 -1.23953,5.39561 -3.13529,-0.0729 8.09342,-14.8744"
       style="fill:url(#linearGradient5087);fill-opacity:1;fill-rule:evenodd;stroke:none;stroke-width:1px;stroke-linecap:butt;stroke-linejoin:miter;stroke-opacity:1"
       inkscape:connector-curvature="0" />
  </g>
  <style
     id="style5-3"
     type="text/css" />
</svg>
